<svg width="352" height="447" viewBox="0 0 352 447" fill="none" xmlns="http://www.w3.org/2000/svg">
<path fill-rule="evenodd" clip-rule="evenodd" d="M176 345C250.006 345 310 285.006 310 211C310 181.681 300.584 154.561 284.611 132.5C325.642 164.721 352 214.782 352 271C352 368.202 273.202 447 176 447C78.7979 447 0 368.202 0 271C0 214.782 26.3577 164.721 67.3893 132.5C51.4161 154.561 42 181.681 42 211C42 285.006 101.994 345 176 345Z" fill="white"/>
<path fill-rule="evenodd" clip-rule="evenodd" d="M219.305 73.9862L175.5 0L131.695 73.9862L87 146.5L131.695 219.014L175.5 293L219.305 219.014L264 146.5L219.305 73.9862ZM190.597 121.009L175.5 95L160.403 121.009L145 146.5L160.403 171.991L175.5 198L190.597 171.991L206 146.5L190.597 121.009Z" fill="white"/>
</svg>
