<svg width="352" height="352" viewBox="0 0 352 352" fill="none" xmlns="http://www.w3.org/2000/svg">
<path fill-rule="evenodd" clip-rule="evenodd" d="M176 352C273.202 352 352 273.202 352 176C352 78.7979 273.202 0 176 0C78.7979 0 0 78.7979 0 176C0 273.202 78.7979 352 176 352ZM176 268C248.349 268 307 209.349 307 137C307 64.6507 248.349 5.99999 176 5.99999C103.651 5.99999 45 64.6507 45 137C45 209.349 103.651 268 176 268Z" fill="white"/>
<path fill-rule="evenodd" clip-rule="evenodd" d="M206.167 64.5152L176.268 14.0169L146.369 64.5152L115.864 114.008L146.369 163.502L176.268 214L206.167 163.502L236.672 114.008L206.167 64.5152ZM186.572 96.6098L176.268 78.8579L165.964 96.6098L155.451 114.008L165.964 131.407L176.268 149.159L186.572 131.407L197.085 114.008L186.572 96.6098Z" fill="white"/>
</svg>
